PathFileType	4	(X/Y/Z)	Patient4_TMGait_0pt5_02_left_44.trc.trc
DataRate	CameraRate	NumFrames	NumMarkers	Units	OrigDataRate	OrigDataStartFrame	OrigNumFrames
77.348066298342	77.348066298342	4	33	mm	77.348066298342	71	       141
Frame#	Time	Sacral			L.Shoulder			Chest			R.Shoulder			Neck			R.ASIS			L.ASIS			R.Thigh.Superior			R.Thigh.Lateral			R.Thigh.Inferior			R.Patella			L.Thigh.Superior			L.Thigh.Lateral			L.Thigh.Inferior			L.Patella			L.Shank.Superior			L.Shank.Lateral			L.Shank.Inferior			R.Shank.Superior			R.Shank.Lateral			R.Shank.Inferior			R.Heel			R.Midfoot.Superior			R.Midfoot.Lateral			R.Toe			L.Heel			L.Midfoot.Lateral			L.Midfoot.Superior			L.Toe			L.Elbow			L.Wrist			R.Elbow			R.Wrist			
		X1	Y1	Z1	X2	Y2	Z2	X3	Y3	Z3	X4	Y4	Z4	X5	Y5	Z5	X6	Y6	Z6	X7	Y7	Z7	X8	Y8	Z8	X9	Y9	Z9	X10	Y10	Z10	X11	Y11	Z11	X12	Y12	Z12	X13	Y13	Z13	X14	Y14	Z14	X15	Y15	Z15	X16	Y16	Z16	X17	Y17	Z17	X18	Y18	Z18	X19	Y19	Z19	X20	Y20	Z20	X21	Y21	Z21	X22	Y22	Z22	X23	Y23	Z23	X24	Y24	Z24	X25	Y25	Z25	X26	Y26	Z26	X27	Y27	Z27	X28	Y28	Z28	X29	Y29	Z29	X30	Y30	Z30	X31	Y31	Z31	X32	Y32	Z32	X33	Y33	Z33	

71	57.635000000000	673.554932643568	1003.628412540240	444.671460005894	881.285159335894	1423.798257404235	272.467961418176	960.605735467660	1352.161467657474	445.455620066815	860.861295718059	1432.672820306367	607.852960332743	868.855435430194	1488.239643998940	421.500472410428	888.600125995794	940.290870445465	582.650793641653	900.925930609981	951.859026733330	306.998362357588	963.952785457972	762.928125662155	556.327164943037	913.894705133337	642.727871313836	625.553369252638	1001.257063872905	604.825978584627	544.874520753089	1032.776722101101	522.500687715540	558.876806797082	902.583427953734	724.941219992185	344.749415798226	794.340226302462	628.674055638025	273.941263136119	846.991194172133	537.140582581475	347.147285986128	829.915628844347	469.075697424366	357.324735028854	795.761360782658	402.787778486349	345.904800971457	695.628226834437	301.567090058532	288.521503428675	720.875062359782	186.237543336497	364.644291930785	1018.579007029982	432.674637125734	569.318865426442	968.722944880183	318.712012418253	634.368025779569	1036.354472028230	232.977807805306	579.892710698686	944.644473994311	44.615532220688	553.617626635696	1105.970598331401	123.271763292117	592.965387667042	1029.582920992887	45.631655851592	626.863073949998	1231.649844133759	88.750721770189	617.182736207652	572.975502483459	39.308851544901	397.047093721284	650.190317052543	35.812291898138	320.104710947101	733.224390431781	95.187347952811	350.755063339247	861.972458354114	39.900855869257	326.698546012197	884.024838235795	1072.423516740537	148.745389631219	1096.665902094594	949.066308672116	229.235431012938	725.605384135488	1118.704267941762	723.650914670399	729.883707186169	859.498170893027	757.339921195889	
72	57.647928571429	675.517052523061	1001.003357608627	446.904074063867	879.733293448830	1422.648347775674	275.291217683467	959.797343115699	1351.365346300874	448.082335037158	859.563808728075	1430.949080922801	610.743153032216	867.132643562965	1486.830545026072	424.381293841144	890.606548613879	938.218463696900	584.394216407165	903.050227455359	951.161275813997	309.019008186855	965.061753034917	759.453797324583	558.318287657036	913.005677759391	639.374535175225	626.413147009180	1000.703706201265	601.446352312249	546.267454214900	1030.625414143880	518.996471809613	559.421868990162	902.282062872368	723.083338532390	345.668152915749	792.431334561006	628.054960771303	274.779309217995	843.895499673499	535.796708593925	347.711689116583	826.172910290020	467.825679557186	357.784060852966	791.503859685851	401.913143641466	346.356726666765	690.561113914656	301.510752850029	288.875154460454	714.996394523861	185.879182315102	364.839686301827	1016.912492461183	429.013877653329	569.834543277158	966.889576241193	314.947375357759	634.286797419187	1034.631807470133	229.534058357874	579.659825689732	942.589411300719	42.641495486982	552.966860037631	1104.191743849760	119.768983511244	591.956123207355	1027.506001707295	43.160253704389	626.191950963536	1229.670197017623	84.384067748104	616.097524930960	566.412064046368	39.280873844021	397.023060913216	643.666034353106	35.769897679579	320.144822157791	726.709630189427	95.146053144630	350.795798305774	855.441416499738	39.836192460596	326.699232248224	887.576957790026	1071.354944188397	151.911891598795	1104.215134938399	956.294594564232	233.147390564709	726.060949508085	1115.389412811906	724.372885316252	734.245918002534	855.757026427943	755.503901108829	
73	57.660857142857	677.524419746980	998.401592725120	449.287409235002	878.159430848068	1421.523060902431	278.297113360622	959.075769956838	1350.570960569887	450.843255133870	858.397351190887	1429.155320278110	613.850333741055	865.462673432695	1485.421893967934	427.462346395481	892.755773694874	936.159199981041	586.153137159953	905.207370248843	950.581614959479	310.925233372864	966.782146135844	756.379228191627	560.119225250281	912.860161765423	636.359471542886	627.024724689510	1001.062702596887	598.530318719920	547.527548475594	1029.345393552415	515.610921993833	559.896448266846	902.239720404142	721.281430496956	346.555971725008	790.814621856651	627.406614918969	275.802001844417	841.343354608091	534.438116742691	348.381751343123	823.084998107402	466.440857374016	358.351379630329	787.721265738093	400.953092926350	346.933957816608	685.792444762291	301.557280534093	289.331150175347	709.271184736773	185.550361869247	365.060428325527	1015.636181386550	425.418022269909	570.203424867286	964.799235985180	311.558473405335	634.078916037581	1032.022084259747	226.060521664067	579.286274483740	938.275993893024	41.419017882237	552.319990915653	1100.671951123467	115.944949889443	590.794056283453	1023.145681222585	41.064955137233	625.567931549509	1225.696954393264	78.895103882013	614.992457519843	559.839745349559	39.404141643952	396.958868825918	637.158162691234	35.797006296625	320.171005039620	720.248772118980	95.139989648216	350.815491062537	848.936436006882	39.739889218895	326.680893214287	890.961368566608	1070.332640633074	155.228616293797	1111.357640768142	963.499473381359	236.787589560236	727.214592959332	1111.799754300371	725.443321906138	739.556412873574	851.800269174137	753.888424986405	
74	57.673785714286	679.509888372897	995.938662204379	451.765970343379	876.639298139009	1420.501922862158	281.468364545751	958.464443188085	1349.831740499665	453.734471265522	857.388233851304	1427.378511964453	617.148248728596	863.908481827129	1484.095017529694	430.724915401092	894.970519317257	934.217807921543	587.946833647829	907.270887524076	950.139086404234	312.643767559155	968.998436153335	753.802046694343	561.753227815082	913.416101561323	633.799643165988	627.468831050556	1002.226395170779	596.159564046781	548.675215953901	1028.920783138520	512.516461389024	560.346559031098	902.492573732852	719.628513138111	347.453904213932	789.601567260992	626.749106893507	277.037832127869	839.503944484468	533.109798426345	349.187365220676	820.837016723879	464.927079107429	359.041186887341	784.560160815737	399.916215635787	347.653655146751	681.437432190880	301.760985121919	289.910023273482	703.777356617269	185.295587470697	365.306943450342	1014.831374425136	422.071989326004	570.471695616603	962.737667561185	308.644050903364	633.851623685420	1028.913112761628	222.732502822726	578.825752054362	932.388231659865	40.801391657722	551.739246903958	1095.952109703785	112.079463448592	589.562503689160	1017.205451604890	39.370927253183	625.037234249231	1220.364118604113	72.860788225356	613.912040091499	553.279314811977	39.797903438289	396.853108730818	630.684345487746	35.955915384150	320.181452039752	713.894305890163	95.190813197957	350.803743644038	842.471866204011	39.606202571685	326.641286072809	894.140955225451	1069.413092022021	158.689740914749	1118.010892420553	970.571554062677	240.151429637570	729.071246206694	1108.047890704050	726.853972446270	745.780457903692	847.766454716120	752.558057050504	
